<?xml version="1.0" encoding="utf-8"?>
<!-- Generator: Adobe Illustrator 27.8.1, SVG Export Plug-In . SVG Version: 6.00 Build 0)  -->
<svg version="1.1" id="Outline" xmlns="http://www.w3.org/2000/svg" xmlns:xlink="http://www.w3.org/1999/xlink" x="0px" y="0px"
	 viewBox="0 0 48 48" enable-background="new 0 0 48 48" xml:space="preserve">
<g>
	<path d="M42,11H31.73999C30.84998,7.56,27.71997,5,24,5s-6.84998,2.56-7.73999,6H6c-0.54999,0-1,0.45001-1,1v24
		c0,0.54999,0.45001,1,1,1h12.21997l-1,4H16c-0.54999,0-1,0.45001-1,1s0.45001,1,1,1h16c0.54999,0,1-0.45001,1-1s-0.45001-1-1-1
		h-1.21997l-1-4H42c0.54999,0,1-0.45001,1-1V12C43,11.45001,42.54999,11,42,11z M24,7c3.31,0,6,2.69,6,6
		c0,4.44-4.39001,8.41998-6,9.72998C22.39001,21.41998,18,17.44,18,13C18,9.69,20.69,7,24,7z M19.28003,41l1-4h7.43994l1,4H19.28003
		z M41,35H7v-2h34V35z M41,31H7V13h9c0,6.43916,7.11813,11.59863,7.41986,11.80992c0.31774,0.2225,0.82107,0.25933,1.16015,0.00008
		C24.88,24.59998,32,19.44,32,13h9V31z"/>
	<circle cx="21.75" cy="10.75" r="1"/>
	<circle cx="26.25" cy="15.75" r="1"/>
	<path d="M23.35742,16.26465l3-5c0.28418-0.47363,0.13086-1.08789-0.34277-1.37207
		c-0.47461-0.28516-1.08789-0.13086-1.37207,0.34277l-3,5c-0.28418,0.47363-0.13086,1.08789,0.34288,1.37214
		C22.45422,16.88866,23.07576,16.73409,23.35742,16.26465z"/>
	<path d="M26,27h-4c-0.55273,0-1,0.44727-1,1s0.44727,1,1,1h4c0.55273,0,1-0.44727,1-1S26.55273,27,26,27z"/>
</g>
</svg>
