<?xml version="1.0" encoding="utf-8"?>
<!-- Generator: Adobe Illustrator 27.8.1, SVG Export Plug-In . SVG Version: 6.00 Build 0)  -->
<svg version="1.1" id="Outline" xmlns="http://www.w3.org/2000/svg" xmlns:xlink="http://www.w3.org/1999/xlink" x="0px" y="0px"
	 viewBox="0 0 48 48" enable-background="new 0 0 48 48" xml:space="preserve">
<g>
	<path d="M15.5,33c0.55225,0,1-0.44775,1-1s-0.44775-1-1-1h-3c-0.55225,0-1,0.44775-1,1v6c0,0.55225,0.44775,1,1,1s1-0.44775,1-1v-2
		h2c0.55225,0,1-0.44775,1-1s-0.44775-1-1-1h-2v-1H15.5z"/>
	<path d="M23.5,33.75c0-1.5166-1.2334-2.75-2.75-2.75H19c-0.55225,0-1,0.44775-1,1v6c0,0.55225,0.44775,1,1,1s1-0.44775,1-1v-1.5
		h0.22937c0,0,1.44713,2.0673,1.45128,2.07323c0.29795,0.42564,0.93986,0.56314,1.39259,0.24611
		c0.45264-0.31689,0.5625-0.94043,0.24609-1.39258l-0.99799-1.42566C23.03204,35.50348,23.5,34.6817,23.5,33.75z M20.75,34.5H20V33
		h0.75c0.41357,0,0.75,0.33643,0.75,0.75S21.16357,34.5,20.75,34.5z"/>
	<path d="M29,33c0.55225,0,1-0.44775,1-1s-0.44775-1-1-1h-3c-0.55225,0-1,0.44775-1,1v6c0,0.55225,0.44775,1,1,1h3
		c0.55225,0,1-0.44775,1-1s-0.44775-1-1-1h-2v-1h2c0.55225,0,1-0.44775,1-1s-0.44775-1-1-1h-2v-1H29z"/>
	<path d="M35.5,33c0.55225,0,1-0.44775,1-1s-0.44775-1-1-1h-3c-0.55225,0-1,0.44775-1,1v6c0,0.55225,0.44775,1,1,1h3
		c0.55225,0,1-0.44775,1-1s-0.44775-1-1-1h-2v-1h2c0.55225,0,1-0.44775,1-1s-0.44775-1-1-1h-2v-1H35.5z"/>
	<path d="M42,27h-3V6c0-0.55225-0.44775-1-1-1H10C9.44775,5,9,5.44775,9,6v21H6c-0.55225,0-1,0.44775-1,1v14
		c0,0.55225,0.44775,1,1,1h36c0.55225,0,1-0.44775,1-1V28C43,27.44775,42.55225,27,42,27z M31,7h6v2h-6V7z M19,7h10v5l-1,0.75
		l-1.3999-1.0498c-0.35547-0.2666-0.84473-0.2666-1.2002,0L24,12.75l-1.3999-1.0498c-0.35547-0.2666-0.84473-0.2666-1.2002,0
		L20,12.75L19,12V7z M11,7h6v2h-6V7z M11,11h6v1.5c0,0.31494,0.14795,0.61133,0.3999,0.7998l2,1.5
		c0.35547,0.2666,0.84473,0.2666,1.2002,0L22,13.75l1.3999,1.0498c0.35547,0.2666,0.84473,0.2666,1.2002,0L26,13.75
		c0,0,1.3999,1.0498,1.39998,1.04986c0.35349,0.26507,0.84698,0.2648,1.20012-0.00006l2-1.5C30.85205,13.11133,31,12.81494,31,12.5
		V11h6v16H11V11z M41,41H7V29h3h28h3V41z"/>
	<path d="M22,23h-8c-0.55225,0-1,0.44775-1,1s0.44775,1,1,1h8c0.55225,0,1-0.44775,1-1S22.55225,23,22,23z"/>
	<path d="M14,21h4c0.55225,0,1-0.44775,1-1s-0.44775-1-1-1h-4c-0.55225,0-1,0.44775-1,1S13.44775,21,14,21z"/>
</g>
</svg>
