<?xml version="1.0" encoding="utf-8"?>
<!-- Generator: Adobe Illustrator 27.8.1, SVG Export Plug-In . SVG Version: 6.00 Build 0)  -->
<svg version="1.1" id="Outline" xmlns="http://www.w3.org/2000/svg" xmlns:xlink="http://www.w3.org/1999/xlink" x="0px" y="0px"
	 viewBox="0 0 48 48" enable-background="new 0 0 48 48" xml:space="preserve">
<g>
	<path d="M33.70703,10.88439c-0.55939-0.50098-1.49249-0.19342-1.64606,0.54144c-0.0708,0.33868-0.17725,0.67645-0.31635,1.00299
		c-0.35101,0.82617-1.68835,0.71246-1.86713-0.1756c-0.60602-3.01288-2.47809-5.52655-5.33942-7.11542
		C23.89362,4.75762,23,5.28497,23,5.98998c-0.00018,4.39386-2.01721,8.85242-4.07275,9.00183
		c-2.11652,0.17035-2.67511-2.37579-2.7793-3.98669c-0.05048-0.78052-1.04999-1.20337-1.64545-0.698
		C9.59406,14.47259,7,19.89532,7,25.98937c0,9.37403,7.62598,17,17,17s17-7.62598,17-17
		C41,20.29943,38.54639,15.2174,33.70703,10.88439z M24,40.98925c-4.41113,0-8-3.58887-8-8c0-5.41358,6.10303-10.36328,8-11.77051
		c1.89697,1.40723,8,6.35693,8,11.77051C32,37.40039,28.41113,40.98925,24,40.98925z M32.38403,38.42175
		C33.40222,36.85577,34,34.99237,34,32.98925c0-7.44971-9.05957-13.57471-9.44531-13.83203
		c-0.33594-0.22363-0.77344-0.22363-1.10938,0C23.05957,19.41455,14,25.53955,14,32.98925c0,2.00311,0.59778,3.86652,1.61597,5.4325
		C11.6272,35.72314,9,31.15728,9,25.98937c0-4.97852,1.8291-9.31445,5.44189-12.91309
		c0.54858,2.18762,2.19647,4.08801,4.63098,3.91064c3.37201-0.24573,5.37-5.0567,5.82654-9.22119
		c1.57222,1.24459,2.62591,2.93593,3.01705,4.88165c0.53587,2.66566,4.31425,3.1874,5.56644,0.78094
		C37.14551,17.12121,39,21.34045,39,25.98937C39,31.15728,36.3728,35.72314,32.38403,38.42175z"/>
	<circle cx="21.5" cy="29.98937" r="1"/>
	<circle cx="26.5" cy="35.98938" r="1"/>
	<path d="M26.55469,29.15734c-0.45996-0.30762-1.08008-0.18262-1.38672,0.27734l-4,6
		c-0.30615,0.45947-0.18213,1.08057,0.2777,1.38695c0.45567,0.30394,1.08242,0.17834,1.38637-0.27758c0.00014-0.00021,4-6,4-6
		C27.13818,30.08459,27.01416,29.4635,26.55469,29.15734z"/>
</g>
</svg>
