<svg width="48" height="48" viewBox="0 0 48 48" fill="none" xmlns="http://www.w3.org/2000/svg">
<rect width="48" height="48" rx="8" fill="white"/>
<path d="M34.2813 27.3312L29.1516 25.1437C28.8869 25.025 28.5963 24.9758 28.3074 25.0007C28.0184 25.0256 27.7405 25.1237 27.5 25.2859L24.7547 27.1124C23.0815 26.2998 21.7268 24.9528 20.9047 23.2843L22.7203 20.5062C22.8814 20.2654 22.9797 19.9882 23.0065 19.6998C23.0332 19.4114 22.9875 19.1209 22.8734 18.8546L20.675 13.7249C20.5216 13.3785 20.2618 13.09 19.9334 12.9012C19.605 12.7124 19.225 12.6332 18.8484 12.6749C17.3714 12.8684 16.0149 13.5917 15.0312 14.7102C14.0474 15.8288 13.5033 17.2665 13.5 18.7562C13.5 27.4405 20.5656 34.5062 29.25 34.5062C30.7396 34.5029 32.1774 33.9588 33.2959 32.975C34.4145 31.9912 35.1378 30.6347 35.3313 29.1577C35.373 28.7812 35.2937 28.4012 35.1049 28.0728C34.9161 27.7443 34.6276 27.4846 34.2813 27.3312Z" fill="url(#paint0_linear_526_4802)"/>
<path d="M27.2163 15.2138C28.5482 15.5777 29.7622 16.2825 30.7385 17.2588C31.7148 18.2351 32.4196 19.4491 32.7835 20.781C32.8318 20.968 32.9406 21.1337 33.0929 21.2524C33.2452 21.3712 33.4326 21.4361 33.6257 21.4372C33.7034 21.4371 33.7807 21.426 33.8554 21.4044C33.9666 21.3753 34.0709 21.3243 34.1622 21.2544C34.2534 21.1845 34.3298 21.097 34.3869 20.9972C34.4439 20.8974 34.4805 20.7872 34.4944 20.673C34.5083 20.5589 34.4993 20.4432 34.4679 20.3325C34.0304 18.7014 33.1715 17.2141 31.9773 16.02C30.7832 14.8258 29.2959 13.9669 27.6647 13.5294C27.5506 13.4878 27.4291 13.4705 27.3079 13.4784C27.1866 13.4864 27.0684 13.5195 26.9607 13.5757C26.853 13.6319 26.7581 13.7098 26.6822 13.8046C26.6063 13.8995 26.5509 14.0091 26.5197 14.1264C26.4884 14.2438 26.482 14.3664 26.5007 14.4865C26.5194 14.6065 26.5629 14.7213 26.6285 14.8236C26.694 14.9259 26.7801 15.0134 26.8813 15.0806C26.9825 15.1477 27.0966 15.1931 27.2163 15.2138Z" fill="url(#paint1_linear_526_4802)"/>
<path d="M26.3081 18.5927C27.0484 18.7954 27.7232 19.1874 28.266 19.7301C28.8087 20.2729 29.2008 20.9477 29.4034 21.688C29.45 21.8759 29.5583 22.0428 29.711 22.1618C29.8637 22.2808 30.052 22.345 30.2456 22.3443C30.3198 22.345 30.3936 22.3339 30.4644 22.3115C30.5766 22.2835 30.682 22.2334 30.7745 22.164C30.867 22.0946 30.9446 22.0073 31.0028 21.9074C31.0609 21.8074 31.0984 21.6968 31.113 21.5821C31.1276 21.4674 31.119 21.3509 31.0878 21.2396C30.8116 20.2 30.2655 19.2518 29.5049 18.4912C28.7443 17.7306 27.7961 17.1845 26.7565 16.9083C26.6424 16.8667 26.5209 16.8494 26.3997 16.8574C26.2784 16.8653 26.1602 16.8984 26.0525 16.9546C25.9448 17.0108 25.8499 17.0887 25.774 17.1836C25.6981 17.2784 25.6427 17.388 25.6115 17.5054C25.5802 17.6227 25.5738 17.7453 25.5925 17.8654C25.6112 17.9854 25.6547 18.1002 25.7203 18.2025C25.7858 18.3048 25.8719 18.3923 25.9731 18.4595C26.0743 18.5267 26.1884 18.572 26.3081 18.5927Z" fill="url(#paint2_linear_526_4802)"/>
<defs>
<linearGradient id="paint0_linear_526_4802" x1="12.2987" y1="15.1759" x2="30.3065" y2="36.2002" gradientUnits="userSpaceOnUse">
<stop offset="0.197917" stop-color="#B16CEA"/>
<stop offset="0.557292" stop-color="#FF5E69"/>
<stop offset="0.828125" stop-color="#FF8A56"/>
<stop offset="1" stop-color="#FFA84B"/>
</linearGradient>
<linearGradient id="paint1_linear_526_4802" x1="26.0497" y1="14.392" x2="32.6064" y2="22.095" gradientUnits="userSpaceOnUse">
<stop offset="0.197917" stop-color="#B16CEA"/>
<stop offset="0.557292" stop-color="#FF5E69"/>
<stop offset="0.828125" stop-color="#FF8A56"/>
<stop offset="1" stop-color="#FFA84B"/>
</linearGradient>
<linearGradient id="paint2_linear_526_4802" x1="25.2774" y1="17.4867" x2="29.7964" y2="22.8097" gradientUnits="userSpaceOnUse">
<stop offset="0.197917" stop-color="#B16CEA"/>
<stop offset="0.557292" stop-color="#FF5E69"/>
<stop offset="0.828125" stop-color="#FF8A56"/>
<stop offset="1" stop-color="#FFA84B"/>
</linearGradient>
</defs>
</svg>
