<svg width="48" height="48" viewBox="0 0 48 48" fill="none" xmlns="http://www.w3.org/2000/svg">
<rect width="48" height="48" rx="8" fill="white"/>
<path d="M34.5 15.25H13.5C13.2679 15.25 13.0454 15.3422 12.8813 15.5063C12.7172 15.6704 12.625 15.8929 12.625 16.125V31C12.625 31.4641 12.8094 31.9092 13.1376 32.2374C13.4658 32.5656 13.9109 32.75 14.375 32.75H33.625C34.0891 32.75 34.5342 32.5656 34.8624 32.2374C35.1906 31.9092 35.375 31.4641 35.375 31V16.125C35.375 15.8929 35.2828 15.6704 35.1187 15.5063C34.9546 15.3422 34.7321 15.25 34.5 15.25ZM33.625 31H14.375V18.1156L23.4094 26.3953C23.5707 26.5429 23.7814 26.6247 24 26.6247C24.2186 26.6247 24.4293 26.5429 24.5906 26.3953L33.625 18.1156V31Z" fill="url(#paint0_linear_526_4813)"/>
<defs>
<linearGradient id="paint0_linear_526_4813" x1="11.3737" y1="17.2625" x2="24.7902" y2="37.6255" gradientUnits="userSpaceOnUse">
<stop offset="0.197917" stop-color="#B16CEA"/>
<stop offset="0.557292" stop-color="#FF5E69"/>
<stop offset="0.828125" stop-color="#FF8A56"/>
<stop offset="1" stop-color="#FFA84B"/>
</linearGradient>
</defs>
</svg>
