<svg width="48" height="48" viewBox="0 0 48 48" fill="none" xmlns="http://www.w3.org/2000/svg">
<rect width="48" height="48" rx="8" fill="white"/>
<path d="M24 11.4297C21.4482 11.4326 19.0017 12.4476 17.1973 14.252C15.3929 16.0564 14.3779 18.5029 14.375 21.0547C14.375 29.2906 23.125 35.5141 23.4969 35.7766C23.6459 35.8758 23.821 35.9287 24 35.9287C24.179 35.9287 24.3541 35.8758 24.5031 35.7766C24.875 35.5141 33.625 29.2906 33.625 21.0547C33.6221 18.5029 32.6071 16.0564 30.8027 14.252C28.9983 12.4476 26.5518 11.4326 24 11.4297ZM24 17.5547C24.6922 17.5547 25.3689 17.76 25.9445 18.1445C26.5201 18.5291 26.9687 19.0758 27.2336 19.7153C27.4985 20.3548 27.5678 21.0586 27.4327 21.7375C27.2977 22.4164 26.9644 23.0401 26.4749 23.5296C25.9854 24.019 25.3617 24.3524 24.6828 24.4874C24.0039 24.6225 23.3001 24.5532 22.6606 24.2883C22.0211 24.0234 21.4744 23.5748 21.0899 22.9992C20.7053 22.4236 20.5 21.7469 20.5 21.0547C20.5 20.1264 20.8687 19.2362 21.5251 18.5798C22.1815 17.9234 23.0717 17.5547 24 17.5547Z" fill="url(#paint0_linear_526_4822)"/>
<defs>
<linearGradient id="paint0_linear_526_4822" x1="13.3162" y1="14.2471" x2="33.6815" y2="32.9294" gradientUnits="userSpaceOnUse">
<stop offset="0.197917" stop-color="#B16CEA"/>
<stop offset="0.557292" stop-color="#FF5E69"/>
<stop offset="0.828125" stop-color="#FF8A56"/>
<stop offset="1" stop-color="#FFA84B"/>
</linearGradient>
</defs>
</svg>
