<svg width="20" height="21" viewBox="0 0 20 21" fill="none" xmlns="http://www.w3.org/2000/svg">
<path d="M19.9492 5.88119C19.9023 4.81831 19.7304 4.08759 19.4842 3.45441C19.2302 2.7823 18.8394 2.18057 18.3274 1.68034C17.8272 1.17233 17.2215 0.777585 16.5572 0.527549C15.9203 0.281329 15.1934 0.109448 14.1306 0.0625854C13.0597 0.0117538 12.7198 0 10.0039 0C7.28799 0 6.94805 0.0117538 5.88119 0.0586166C4.81831 0.105479 4.08759 0.277513 3.45456 0.52358C2.7823 0.777585 2.18057 1.16836 1.68034 1.68034C1.17233 2.18057 0.777738 2.78627 0.527549 3.45059C0.281329 4.08759 0.109448 4.81434 0.0625854 5.87723C0.0117538 6.94805 0 7.28799 0 10.0039C0 12.7198 0.0117538 13.0597 0.0586166 14.1266C0.105479 15.1895 0.277513 15.9202 0.523733 16.5534C0.777738 17.2255 1.17233 17.8272 1.68034 18.3274C2.18057 18.8355 2.78627 19.2302 3.45059 19.4802C4.08759 19.7265 4.81434 19.8983 5.87738 19.9452C6.94408 19.9922 7.28418 20.0038 10.0001 20.0038C12.716 20.0038 13.0559 19.9922 14.1228 19.9452C15.1857 19.8983 15.9164 19.7265 16.5494 19.4802C17.8938 18.9605 18.9567 17.8976 19.4764 16.5534C19.7225 15.9164 19.8945 15.1895 19.9414 14.1266C19.9882 13.0597 20 12.7198 20 10.0039C20 7.28799 19.996 6.94805 19.9492 5.88119ZM18.1478 14.0484C18.1047 15.0254 17.9406 15.5529 17.8039 15.9046C17.4677 16.7761 16.7761 17.4677 15.9046 17.8039C15.5529 17.9406 15.0216 18.1047 14.0484 18.1476C12.9933 18.1946 12.6769 18.2062 10.0079 18.2062C7.33882 18.2062 7.01842 18.1946 5.96714 18.1476C4.99019 18.1047 4.46264 17.9406 4.11094 17.8039C3.67727 17.6436 3.28253 17.3896 2.96212 17.0574C2.62996 16.733 2.37596 16.3423 2.21568 15.9086C2.0789 15.5569 1.91481 15.0254 1.87191 14.0524C1.8249 12.9973 1.8133 12.6807 1.8133 10.0117C1.8133 7.34264 1.8249 7.02223 1.87191 5.9711C1.91481 4.99416 2.0789 4.46661 2.21568 4.11491C2.37596 3.68109 2.62996 3.2865 2.96609 2.96594C3.29031 2.63378 3.68109 2.37977 4.11491 2.21964C4.46661 2.08287 4.99813 1.91878 5.9711 1.87573C7.0262 1.82887 7.34279 1.81711 10.0117 1.81711C12.6847 1.81711 13.0011 1.82887 14.0524 1.87573C15.0293 1.91878 15.5569 2.08287 15.9086 2.21964C16.3423 2.37977 16.737 2.63378 17.0574 2.96594C17.3896 3.29031 17.6436 3.68109 17.8039 4.11491C17.9406 4.46661 18.1047 4.99798 18.1478 5.9711C18.1946 7.0262 18.2064 7.34264 18.2064 10.0117C18.2064 12.6807 18.1946 12.9933 18.1478 14.0484Z" fill="white"/>
<path d="M10.0031 4.86426C7.16615 4.86426 4.86438 7.16587 4.86438 10.003C4.86438 12.8401 7.16615 15.1417 10.0031 15.1417C12.8402 15.1417 15.1418 12.8401 15.1418 10.003C15.1418 7.16587 12.8402 4.86426 10.0031 4.86426ZM10.0031 13.3363C8.16263 13.3363 6.66974 11.8436 6.66974 10.003C6.66974 8.16236 8.16263 6.66962 10.0031 6.66962C11.8437 6.66962 13.3365 8.16236 13.3365 10.003C13.3365 11.8436 11.8437 13.3363 10.0031 13.3363V13.3363Z" fill="white"/>
<path d="M16.543 4.66036C16.543 5.32273 16.0059 5.85979 15.3434 5.85979C14.681 5.85979 14.144 5.32273 14.144 4.66036C14.144 3.99785 14.681 3.46094 15.3434 3.46094C16.0059 3.46094 16.543 3.99785 16.543 4.66036V4.66036Z" fill="white"/>
</svg>
