<?xml version="1.0" encoding="utf-8"?>
<!-- Generator: Adobe Illustrator 27.8.1, SVG Export Plug-In . SVG Version: 6.00 Build 0)  -->
<svg version="1.1" id="Outline" xmlns="http://www.w3.org/2000/svg" xmlns:xlink="http://www.w3.org/1999/xlink" x="0px" y="0px"
	 viewBox="0 0 48 48" enable-background="new 0 0 48 48" xml:space="preserve">
<g>
	<path d="M42,7H6C5.44727,7,5,7.44775,5,8v32c0,0.55225,0.44727,1,1,1h36c0.55273,0,1-0.44775,1-1V8C43,7.44775,42.55273,7,42,7z
		 M7,9h14v6H7V9z M41,39H7V17h34V39z M41,15H23V9h18V15z"/>
	<circle cx="10" cy="12" r="1"/>
	<circle cx="14" cy="12" r="1"/>
	<circle cx="18" cy="12" r="1"/>
	<path d="M10,21h1.2002l1.22394,5.44843C11.86383,26.86102,11.5,27.51996,11.5,28.25342c0,1.23877,1.00781,2.24658,2.24609,2.24658
		H21.5c0.55273,0,1-0.44775,1-1s-0.44727-1-1-1h-7.75391C13.61035,28.5,13.5,28.38916,13.5,28.25342
		c0-0.12207,0.0918-0.22705,0.21289-0.24365l7.42285-1.01904c0.32715-0.04492,0.61133-0.24805,0.75879-0.54346
		c0,0,1.99634-3.99268,1.99999-3.99999C24.19801,21.84031,23.72867,21,23,21h-9.75043l-0.27399-1.21924
		C12.87305,19.32422,12.46777,19,12,19h-2c-0.55273,0-1,0.44775-1,1S9.44727,21,10,21z M21.38184,23l-1.04004,2.08105
		l-5.99048,0.82233L13.69891,23H21.38184z"/>
	<circle cx="14.25" cy="32.75" r="1"/>
	<circle cx="20" cy="32.75" r="1"/>
	<circle cx="38" cy="28" r="1"/>
	<circle cx="38" cy="32" r="1"/>
	<circle cx="38" cy="36" r="1"/>
	<path d="M10,37h13c0.55273,0,1-0.44775,1-1s-0.44727-1-1-1H10c-0.55273,0-1,0.44775-1,1S9.44727,37,10,37z"/>
	<path d="M27,25h11c0.55273,0,1-0.44775,1-1v-4c0-0.55225-0.44727-1-1-1H27c-0.55273,0-1,0.44775-1,1v4
		C26,24.55225,26.44727,25,27,25z M28,21h9v2h-9V21z"/>
	<path d="M27,29h7c0.55273,0,1-0.44775,1-1s-0.44727-1-1-1h-7c-0.55273,0-1,0.44775-1,1S26.44727,29,27,29z"/>
	<path d="M27,33h7c0.55273,0,1-0.44775,1-1s-0.44727-1-1-1h-7c-0.55273,0-1,0.44775-1,1S26.44727,33,27,33z"/>
	<path d="M27,37h7c0.55273,0,1-0.44775,1-1s-0.44727-1-1-1h-7c-0.55273,0-1,0.44775-1,1S26.44727,37,27,37z"/>
</g>
</svg>
