<?xml version="1.0" encoding="utf-8"?>
<!-- Generator: Adobe Illustrator 27.8.1, SVG Export Plug-In . SVG Version: 6.00 Build 0)  -->
<svg version="1.1" id="Outline" xmlns="http://www.w3.org/2000/svg" xmlns:xlink="http://www.w3.org/1999/xlink" x="0px" y="0px"
	 viewBox="0 0 48 48" enable-background="new 0 0 48 48" xml:space="preserve">
<g>
	<path d="M40.43107,30.63l-2-5C38.28111,25.25,37.91105,25,37.50108,25h-27c-0.40997,0-0.78003,0.25-0.92999,0.63
		c0,0-1.9964,4.991-2,4.99999C7.31275,31.27584,7.80762,32,8.50108,32h1.5v10c0,0.54999,0.45001,1,1,1h26c0.54999,0,1-0.45001,1-1
		V32c0,0,1.49594,0,1.49999,0C40.20195,32,40.68186,31.27789,40.43107,30.63z M26.00108,41h-4v-2h4V41z M36.00108,41h-8v-3
		c0-0.54999-0.45001-1-1-1h-6c-0.54999,0-1,0.45001-1,1v3h-8v-9h24V41z M9.98106,30l1.20001-3h25.64001l1.20001,3H9.98106z"/>
	<circle cx="21.50108" cy="11" r="1"/>
	<circle cx="26.50108" cy="17" r="1"/>
	<path d="M21.44651,17.83209c0.4563,0.30237,1.08246,0.1795,1.3866-0.2774l4-6c0.30664-0.45996,0.18262-1.08008-0.27734-1.38672
		c-0.46094-0.30664-1.08105-0.18262-1.38672,0.27734l-4,6C20.86241,16.90527,20.98643,17.52539,21.44651,17.83209z"/>
	<path d="M24.00108,23c4.96289,0,9-4.03711,9-9s-4.03711-9-9-9s-9,4.03711-9,9S19.03819,23,24.00108,23z M24.00108,7
		c3.85938,0,7,3.14062,7,7s-3.14062,7-7,7s-7-3.14062-7-7S20.1417,7,24.00108,7z"/>
	<path d="M35.41221,20.55664c0.00006-0.00006,1.66992-2.49219,1.66992-2.49219c0.30664-0.45898,0.18457-1.08008-0.27441-1.3877
		c-0.45898-0.30664-1.0791-0.18457-1.3877,0.27441l-1.66992,2.49219c-0.30658,0.45892-0.18457,1.0799,0.27423,1.38757
		C34.46873,21.12885,35.11467,21.00073,35.41221,20.55664z"/>
	<path d="M35.72862,22.7793c0.23615,0.48169,0.85944,0.6908,1.33887,0.45605l1.79492-0.88281
		c0.49512-0.24414,0.69922-0.84277,0.45605-1.33887c-0.24316-0.49414-0.84277-0.69824-1.33887-0.45605l-1.79492,0.88281
		C35.68962,21.68451,35.48552,22.28302,35.72862,22.7793z"/>
	<path d="M12.58995,20.55664c0.29242,0.4364,0.92303,0.58508,1.3877,0.27441c0.45898-0.30762,0.58105-0.92871,0.27441-1.3877
		l-1.66992-2.49219c-0.30859-0.45898-0.92969-0.58203-1.3877-0.27441c-0.45898,0.30762-0.58105,0.92871-0.27441,1.3877
		C10.92002,18.06445,12.58921,20.55548,12.58995,20.55664z"/>
	<path d="M9.13975,22.35254c0,0,1.79462,0.88263,1.79492,0.88281c0.46741,0.22986,1.09235,0.04529,1.33887-0.45605
		c0.24316-0.49609,0.03906-1.09473-0.45605-1.33887l-1.79492-0.88281c-0.49316-0.24023-1.09473-0.03906-1.33887,0.45605
		C8.44053,21.50977,8.64463,22.1084,9.13975,22.35254z"/>
</g>
</svg>
