<svg width="20" height="16" viewBox="0 0 20 16" fill="none" xmlns="http://www.w3.org/2000/svg">
<path d="M17.9452 3.935C17.9585 4.10811 17.9585 4.28023 17.9585 4.45235C17.9585 9.71979 13.8337 15.7895 6.29554 15.7895C3.97313 15.7895 1.81559 15.1356 0 14C0.329737 14.0366 0.647262 14.0495 0.99023 14.0495C2.90657 14.0495 4.67026 13.4204 6.07979 12.3471C4.27743 12.3105 2.76715 11.163 2.24608 9.58428C2.49949 9.62088 2.75392 9.64561 3.02056 9.64561C3.38795 9.64561 3.75738 9.59615 4.10035 9.51009C2.22064 9.14013 0.813149 7.53665 0.813149 5.59981V5.55035C1.35966 5.84612 1.99369 6.0311 2.66538 6.05583C1.56116 5.34163 0.837574 4.11998 0.837574 2.73808C0.837574 1.99817 1.0401 1.31958 1.39528 0.728045C3.41339 3.14464 6.44718 4.72438 9.84836 4.89749C9.78526 4.60073 9.74659 4.29309 9.74659 3.98446C9.74659 1.78846 11.5744 0 13.8459 0C15.0265 0 16.092 0.480747 16.841 1.25825C17.7671 1.08514 18.6546 0.751785 19.4423 0.295768C19.138 1.22066 18.4897 1.99817 17.6399 2.49177C18.4653 2.40472 19.2652 2.18315 20 1.87452C19.4423 2.66389 18.7452 3.36721 17.9452 3.935Z" fill="white"/>
</svg>
