<?xml version="1.0" encoding="utf-8"?>
<!-- Generator: Adobe Illustrator 27.8.1, SVG Export Plug-In . SVG Version: 6.00 Build 0)  -->
<svg version="1.1" id="Outline" xmlns="http://www.w3.org/2000/svg" xmlns:xlink="http://www.w3.org/1999/xlink" x="0px" y="0px"
	 viewBox="0 0 48 48" enable-background="new 0 0 48 48" xml:space="preserve">
<g>
	<path d="M31.21444,37.25977l7.42285-1.01904c0.36426-0.0498,0.67188-0.29541,0.80078-0.63965c0,0,1.49176-3.97802,1.49997-3.99991
		C41.1766,30.965,40.67648,30.25,40.00155,30.25h-5V6c0-0.55225-0.44727-1-1-1h-26c-0.55273,0-1,0.44775-1,1v32
		c0,0.55225,0.44727,1,1,1h21.58337c0.4115,0.45691,1.0011,0.75,1.66272,0.75h7.2539c0.55273,0,1-0.44775,1-1s-0.44727-1-1-1
		h-7.2539c-0.13574,0-0.24609-0.11084-0.24609-0.24658C31.00155,37.38135,31.09335,37.27637,31.21444,37.25977z M37.77499,34.34033
		l-5.92212,0.81305L31.20046,32.25h7.35773L37.77499,34.34033z M9.00155,7h24v23.25h-2.25043l-0.27399-1.21924
		C30.3746,28.57422,29.96932,28.25,29.50155,28.25h-2c-0.55273,0-1,0.44775-1,1s0.44727,1,1,1h1.2002l1.22394,5.44843
		C29.49771,36.01355,29.18905,36.4726,29.066,37H9.00155V7z"/>
	<circle cx="31.75155" cy="42" r="1"/>
	<circle cx="37.25155" cy="42" r="1"/>
	<path d="M12.00155,11h6c0.55273,0,1-0.44775,1-1s-0.44727-1-1-1h-6c-0.55273,0-1,0.44775-1,1S11.44882,11,12.00155,11z"/>
	<path d="M18.00155,15c0,0.55225,0.44727,1,1,1h11c0.55273,0,1-0.44775,1-1s-0.44727-1-1-1h-11
		C18.44882,14,18.00155,14.44775,18.00155,15z"/>
	<path d="M30.00155,20h-11c-0.55273,0-1,0.44775-1,1s0.44727,1,1,1h11c0.55273,0,1-0.44775,1-1S30.55429,20,30.00155,20z"/>
	<path d="M14.29452,13.29297l-1.29297,1.29297l-0.29297-0.29297c-0.39062-0.39062-1.02344-0.39062-1.41406,0
		s-0.39062,1.02344,0,1.41406c0,0,0.99745,0.99745,1,0.99999c0.36474,0.36474,1.0251,0.38897,1.41407,0.00001l2-2
		c0.39062-0.39062,0.39062-1.02344,0-1.41406S14.68514,12.90234,14.29452,13.29297z"/>
	<path d="M14.29452,19.29297l-1.29297,1.29297l-0.29297-0.29297c-0.39062-0.39062-1.02344-0.39062-1.41406,0
		s-0.39062,1.02344,0,1.41406c0,0,0.99892,0.99892,1,1c0.37062,0.37062,1.01923,0.39483,1.41406,0l2-2
		c0.39062-0.39062,0.39062-1.02344,0-1.41406S14.68514,18.90234,14.29452,19.29297z"/>
	<path d="M14.29452,25.29297l-1.29297,1.29297l-0.29297-0.29297c-0.39062-0.39062-1.02344-0.39062-1.41406,0
		s-0.39062,1.02344,0,1.41406c0,0,0.99802,0.99802,1,1c0.36375,0.36375,1.0268,0.38727,1.41407,0l2-2
		c0.39062-0.39062,0.39062-1.02344,0-1.41406S14.68514,24.90234,14.29452,25.29297z"/>
	<path d="M14.29452,31.29297l-1.29297,1.29297l-0.29297-0.29297c-0.39062-0.39062-1.02344-0.39062-1.41406,0
		s-0.39062,1.02344,0,1.41406c0,0,0.99632,0.99632,0.99999,0.99999c0.36831,0.36832,1.02145,0.39262,1.41407,0.00001l2-2
		c0.39062-0.39062,0.39062-1.02344,0-1.41406S14.68514,30.90234,14.29452,31.29297z"/>
	<path d="M19.00155,26c-0.55273,0-1,0.44775-1,1s0.44727,1,1,1h4.04004c0.55273,0,1-0.44775,1-1s-0.44727-1-1-1H19.00155z"/>
	<path d="M24.20175,32h-5.2002c-0.55273,0-1,0.44775-1,1s0.44727,1,1,1h5.2002c0.55273,0,1-0.44775,1-1S24.75448,32,24.20175,32z"/>
</g>
</svg>
